<svg width="59" height="55" fill="none" xmlns="http://www.w3.org/2000/svg"><path d="M1.707 23.72H6.83c.304 1.093.74 2.144 1.302 3.13l-3.627 3.625a.924.924 0 000 1.307l3.918 3.92c.361.36.946.36 1.306 0l3.628-3.628a13.73 13.73 0 003.129 1.301V38.5c0 .51.413.923.923.923h5.543c.51 0 .924-.413.924-.923v-5.125a13.73 13.73 0 003.128-1.3l3.628 3.627a.95.95 0 001.306 0l3.92-3.92a.924.924 0 000-1.306L32.23 26.85c.561-.986.998-2.037 1.3-3.13h5.125c.51 0 .924-.414.924-.924v-5.542a.924.924 0 00-.924-.924h-5.124a13.744 13.744 0 00-1.301-3.13l3.627-3.625a.924.924 0 000-1.307l-3.919-3.92a.924.924 0 00-1.306 0l-3.628 3.628a13.767 13.767 0 00-3.128-1.3V1.55a.924.924 0 00-.924-.924H17.41a.924.924 0 00-.923.924v5.125c-1.093.303-2.144.74-3.13 1.301L9.73 4.348a.95.95 0 00-1.306 0l-3.92 3.92a.924.924 0 000 1.307l3.63 3.625a13.741 13.741 0 00-1.304 3.13H1.707a.924.924 0 00-.924.924v5.542c0 .51.414.924.924.924zm.924-5.543h4.923c.434 0 .81-.302.903-.726a11.886 11.886 0 011.618-3.892.924.924 0 00-.125-1.152L6.464 8.921l2.613-2.614 3.486 3.486a.924.924 0 001.152.126A11.903 11.903 0 0117.608 8.3a.925.925 0 00.726-.902V2.474h3.695v4.924c0 .434.302.81.726.902 1.384.304 2.702.852 3.893 1.619a.924.924 0 001.153-.126l3.485-3.486 2.612 2.614-3.485 3.485a.924.924 0 00-.125 1.153 11.884 11.884 0 011.618 3.893.924.924 0 00.902.727h4.925v3.695h-4.925a.924.924 0 00-.902.726 11.872 11.872 0 01-1.618 3.891.924.924 0 00.125 1.152L33.9 31.13l-2.613 2.614-3.485-3.487a.924.924 0 00-1.153-.124 11.874 11.874 0 01-3.892 1.618.924.924 0 00-.727.902v4.924h-3.695v-4.924a.924.924 0 00-.727-.902 11.875 11.875 0 01-3.891-1.618.924.924 0 00-1.153.124l-3.486 3.487-2.612-2.614 3.485-3.485a.924.924 0 00.125-1.153 11.89 11.89 0 01-1.618-3.893.923.923 0 00-.903-.726H2.631v-3.695z" fill="#fff"/><path d="M20.182 27.415a7.39 7.39 0 100-14.78 7.39 7.39 0 00-7.39 7.39 7.398 7.398 0 007.39 7.39zm0-12.932a5.543 5.543 0 11-5.543 5.542 5.548 5.548 0 015.543-5.542z" fill="#fff"/><path d="M20.182 30.186c5.611 0 10.16-4.55 10.16-10.161 0-5.612-4.549-10.161-10.16-10.161-5.612 0-10.161 4.55-10.161 10.16.006 5.61 4.551 10.155 10.16 10.162zm0-18.475a8.313 8.313 0 11-8.314 8.314 8.323 8.323 0 018.314-8.314zm33.254 31.407v-7.39a.924.924 0 00-.923-.923h-1.848v-7.39a.924.924 0 00-.924-.924h-8.313a.924.924 0 00-.924.924v7.39h-4.619a.924.924 0 00-.923.923v7.39H5.402a4.624 4.624 0 00-4.619 4.62v1.847a4.624 4.624 0 004.619 4.618h48.034a4.624 4.624 0 004.619-4.618v-1.848a4.624 4.624 0 00-4.619-4.619zm-1.847 0h-6.466v-6.466h6.466v6.466zm-9.238-14.78h6.467v6.467H42.35v-6.466zm-5.542 8.314h6.466v6.466H36.81v-6.466zm19.399 12.933a2.771 2.771 0 01-2.772 2.77H5.402a2.771 2.771 0 01-2.771-2.77v-1.848a2.77 2.77 0 012.77-2.771h48.035c1.53 0 2.772 1.24 2.772 2.771v1.848z" fill="#fff"/><path d="M29.419 45.89a2.771 2.771 0 100 5.542 2.771 2.771 0 000-5.543zm0 3.694a.924.924 0 110-1.847.924.924 0 010 1.847zm-9.237-3.694a2.772 2.772 0 100 5.543 2.772 2.772 0 000-5.544zm0 3.694a.924.924 0 110-1.847.924.924 0 010 1.847zm18.474-3.694a2.771 2.771 0 100 5.542 2.771 2.771 0 000-5.543zm0 3.694a.924.924 0 110-1.847.924.924 0 010 1.847zM10.944 45.89a2.771 2.771 0 100 5.542 2.771 2.771 0 000-5.543zm0 3.694a.924.924 0 110-1.847.924.924 0 010 1.847zm36.95-3.694a2.771 2.771 0 100 5.542 2.771 2.771 0 000-5.543zm0 3.694a.924.924 0 110-1.847.924.924 0 010 1.847z" fill="#fff"/></svg>