<svg width="56" height="56" fill="none" xmlns="http://www.w3.org/2000/svg"><path d="M31.155 30.044h-1.774v1.774h-1.775v1.775h1.775v1.775h1.774v-1.775h1.775v-1.775h-1.775v-1.774z" fill="#FE9901"/><path opacity=".7" d="M56 17.621V8.748h-4.437v-3.34L53.887.762h-9.97l2.323 4.646v3.34h-2.27a3.537 3.537 0 00-3.055-1.774H26.719a3.553 3.553 0 00-3.55 3.549h-4.436v-3.55H5.423A4.442 4.442 0 00.987 11.41v.887h9.76v1.775H.987v.888a4.442 4.442 0 004.436 4.436h13.31v-3.55h4.436a3.553 3.553 0 003.55 3.55h.568l-2.937 9.4a7.046 7.046 0 00-1.18 3.91 7.107 7.107 0 007.098 7.098c.35 0 .693-.034 1.03-.083l1.436 7.182h-1.24l-1.775 3.549h-2.113v5.324H56v-5.324h-2.113l-1.775-3.55h-1.436V40.19L37.5 32.283l3.221-12.887h.196c1.308 0 2.44-.719 3.055-1.775h2.269v2.453l-2.324 4.646h9.97l-2.323-4.646v-2.453H56zM2.913 10.523a2.667 2.667 0 012.51-1.775h11.535v1.775H2.913zm14.045 7.098H5.423a2.667 2.667 0 01-2.51-1.774h14.045v1.774zm1.775-3.549h-6.211v-1.774h10.647v1.774h-4.436zm6.211 18.634a5.33 5.33 0 015.324-5.324 5.33 5.33 0 015.324 5.324 5.33 5.33 0 01-5.324 5.324 5.33 5.33 0 01-5.324-5.324zM37.21 34.18l5.861 3.516-9.492 4.38-.565-2.825a7.123 7.123 0 004.196-5.071zm7.575 4.545l3.083 1.85-13.399 5.954-.532-2.663 10.9-5.03-.052-.111zM54.225 54H29.381v-1.774h24.844V54zm-2.323-3.549H31.704l.887-1.775h18.424l.887 1.775zm-13.904-3.55l10.904-4.845v4.846H37.998zm-1.56-17.691a7.099 7.099 0 00-6.17-3.604c-1.2 0-2.331.302-3.323.83l2.2-7.041h9.748l-2.455 9.815zm6.252-13.364c0 .979-.796 1.774-1.774 1.774H26.719a1.776 1.776 0 01-1.775-1.774v-5.324c0-.979.796-1.775 1.775-1.775h14.197c.978 0 1.774.796 1.774 1.775v5.324zm8.325-13.31l-.887 1.775h-2.453l-.887-1.775h4.227zm-3 3.55h1.774v2.661h-1.775V6.086zm6.21 4.436v1.774h-9.76v-1.774h9.76zm-9.76 3.55h9.76v1.774h-9.76v-1.775zm2.323 8.872l.887-1.774h2.453l.887 1.774h-4.227zm3-3.549h-1.774V17.62h1.775v1.775z" fill="#393939"/><path d="M30.268 10.523a2.665 2.665 0 00-2.662 2.662 2.665 2.665 0 002.662 2.662 2.665 2.665 0 002.662-2.662 2.665 2.665 0 00-2.662-2.662zm0 3.55a.888.888 0 010-1.775.888.888 0 010 1.774zm7.098-3.55a2.665 2.665 0 00-2.661 2.662 2.665 2.665 0 002.661 2.662 2.665 2.665 0 002.662-2.662 2.665 2.665 0 00-2.662-2.662zm0 3.55a.888.888 0 010-1.775.888.888 0 010 1.774z" fill="#FE9901"/><path opacity=".7" d="M19.556 41.147l1.436-1.72-3.657-3.657-1.72 1.436a8.802 8.802 0 00-1.195-.495l-.2-2.23H9.049l-.2 2.231c-.412.136-.811.3-1.197.495l-1.72-1.436-3.656 3.657 1.435 1.72a8.659 8.659 0 00-.494 1.195l-2.23.2v5.17l2.231.201c.135.41.301.81.495 1.195l-1.435 1.72 3.656 3.658 1.72-1.437c.386.195.785.36 1.196.495l.199 2.231h5.171l.2-2.232c.411-.135.81-.3 1.196-.495l1.72 1.437 3.657-3.658-1.436-1.72c.194-.385.36-.784.495-1.194l2.23-.2v-5.172l-2.232-.2c-.134-.41-.3-.81-.494-1.195zm.951 4.945l-1.844.166-.155.61a6.987 6.987 0 01-.783 1.89l-.323.542 1.188 1.422-1.362 1.363-1.423-1.19-.54.323a7.024 7.024 0 01-1.892.784l-.61.154-.165 1.845H10.67l-.166-1.844-.61-.155a7.026 7.026 0 01-1.892-.784l-.54-.322-1.422 1.188-1.362-1.363L5.867 49.3l-.323-.541a7.057 7.057 0 01-.784-1.89l-.154-.611-1.845-.166v-1.927l1.845-.166.154-.61a6.988 6.988 0 01.784-1.892l.323-.54-1.188-1.423 1.362-1.362 1.423 1.189.54-.323a7.025 7.025 0 011.891-.784l.61-.154.166-1.845h1.927l.166 1.845.61.154a7.026 7.026 0 011.892.784l.539.323 1.423-1.188 1.362 1.362-1.188 1.422.323.54a7.07 7.07 0 01.783 1.891l.155.61 1.845.167v1.927z" fill="#393939"/><path d="M11.634 39.804a5.33 5.33 0 00-5.324 5.324 5.33 5.33 0 005.324 5.324 5.33 5.33 0 005.324-5.324 5.33 5.33 0 00-5.324-5.324zm0 8.873a3.553 3.553 0 01-3.549-3.549 3.553 3.553 0 013.55-3.55 3.553 3.553 0 013.549 3.55 3.553 3.553 0 01-3.55 3.55zm-.887-27.507h1.775v1.775h-1.775v-1.774zm0 3.55h1.775v1.775h-1.775V24.72zm0 3.549h1.775v1.775h-1.775v-1.775z" fill="#FE9901"/></svg>