<svg width="55" height="56" fill="none" xmlns="http://www.w3.org/2000/svg"><path d="M36.712 17.413c-.584 0-1.058.48-1.058 1.072 0 .593.474 1.074 1.058 1.074.586 0 1.059-.48 1.059-1.074 0-.593-.473-1.072-1.059-1.072zM17.48 36.911c-.585 0-1.058.481-1.058 1.074 0 .593.473 1.073 1.058 1.073.585 0 1.059-.48 1.059-1.073s-.474-1.074-1.059-1.074z" fill="#FE9901"/><path opacity=".7" d="M52.877 7.365a1.048 1.048 0 00-.99.289l-4.388 4.484h-2.104l-2.316-2.432V7.543l4.325-4.45c.256-.264.36-.643.276-1.003a1.067 1.067 0 00-.691-.768 10.427 10.427 0 00-3.38-.56c-3.448 0-6.58 1.63-8.594 4.472a10.73 10.73 0 00-1.633 9.041l-7.797 7.905-12.99-13.2V6.39c0-.378-.195-.727-.513-.92L4.597.915a1.047 1.047 0 00-1.293.161L.311 4.112a1.085 1.085 0 00-.16 1.311l4.491 7.588c.191.323.535.52.907.521l2.555.001 12.99 13.2-7.767 7.875c-3.077-.843-6.294-.253-8.92 1.659C1.608 38.307 0 41.482 0 44.977c0 1.172.186 2.325.552 3.427.117.352.406.618.763.702.358.084.733-.025.991-.289l4.388-4.484H8.81l2.41 2.444v2.144l-4.422 4.45a1.082 1.082 0 00.408 1.778c1.086.371 2.223.56 3.38.56 3.447 0 6.578-1.63 8.59-4.47 1.886-2.661 2.468-5.923 1.636-9.043l6.238-6.325 1.43 1.574-.657.664a1.084 1.084 0 000 1.518 1.05 1.05 0 001.498 0l.593-.602 13.408 14.766.03.032a6.288 6.288 0 008.982 0c2.475-2.511 2.475-6.596 0-9.107a.334.334 0 00-.033-.032L37.714 31.117l.587-.596a1.083 1.083 0 000-1.517 1.048 1.048 0 00-1.497 0l-.651.66-1.555-1.447 6.268-6.355c.891.242 1.81.364 2.742.364 5.837 0 10.585-4.814 10.585-10.732a10.84 10.84 0 00-.552-3.427 1.063 1.063 0 00-.764-.702zM9.292 11.702a1.04 1.04 0 00-.749-.304l-2.394-.001-3.757-6.36 1.825-1.85 6.262 3.81v2.427c0 .285.11.557.309.758l13.3 13.516-1.497 1.518-13.3-13.514zm26.924 20.934l14.636 13.613a4.343 4.343 0 01-.016 6.056 4.193 4.193 0 01-5.974.015l-13.45-14.814 4.804-4.87zm-1.561-1.453l-4.679 4.743-1.429-1.574 4.553-4.616 1.555 1.447zm8.953-11.104a8.35 8.35 0 01-2.705-.447 1.05 1.05 0 00-1.086.258L18.866 41.132a1.084 1.084 0 00-.255 1.102 8.595 8.595 0 01-1.155 7.753c-1.61 2.272-4.114 3.575-6.872 3.575a8.56 8.56 0 01-.922-.05l3.361-3.382c.2-.202.313-.476.313-.762v-3.036a1.08 1.08 0 00-.31-.759l-3.03-3.072a1.051 1.051 0 00-.748-.315H6.253c-.282 0-.552.115-.751.318l-3.336 3.408a8.804 8.804 0 01-.05-.935c0-2.796 1.286-5.335 3.527-6.967 2.246-1.637 5.034-2.064 7.647-1.172.38.13.802.03 1.086-.258l20.95-21.242c.285-.288.384-.715.256-1.101a8.591 8.591 0 011.152-7.75c1.611-2.274 4.116-3.578 6.874-3.578.32 0 .636.018.95.053L41.267 6.35a1.08 1.08 0 00-.304.753v3.036c0 .278.106.545.297.745l2.925 3.072c.199.21.474.328.761.328h2.994c.282 0 .553-.114.752-.317l3.335-3.408c.033.31.05.621.05.935 0 4.734-3.799 8.585-8.468 8.585z" fill="#393939"/><path d="M32.97 20.762l-13.245 13.43a1.084 1.084 0 000 1.517 1.049 1.049 0 001.497 0l13.246-13.43a1.083 1.083 0 000-1.517 1.048 1.048 0 00-1.498 0zM46.346 49.27a1.048 1.048 0 001.498-.002c.412-.42.411-1.1-.003-1.518l-9.54-9.642a1.048 1.048 0 00-1.497.002c-.413.42-.412 1.1.002 1.518l9.54 9.642z" fill="#FE9901"/></svg>