<svg width="61" height="61" fill="none" xmlns="http://www.w3.org/2000/svg"><path opacity=".7" d="M57.156 39.495h-.968V14.822L43.944 4.62h-2.288v9.346L31.375 4.62h-2.313v9.687h-2.065L25.06.745h-7.493L15.63 14.307h-2.068v8.57a9.699 9.699 0 00-4.991 4.993H7.75a2.91 2.91 0 00-2.906 2.906 2.91 2.91 0 002.906 2.906h.199a9.654 9.654 0 004.723 6.49C5.37 42.255 0 48.972 0 56.933v3.875h34.875v-3.875c0-4.468-1.704-8.535-4.478-11.625h6.416v12.594a2.91 2.91 0 002.906 2.906h17.437a2.91 2.91 0 002.907-2.906V42.4a2.91 2.91 0 00-2.907-2.906zM19.246 2.682h4.133l1.66 11.625h-7.452l1.66-11.625zM31 16.245V6.898l10.281 9.347h2.313V6.85l10.656 8.88v2.452H15.5v-1.937H31zm-13.563 7.75c2.789 0 5.319 1.516 6.687 3.875H10.75c1.368-2.36 3.898-3.875 6.687-3.875zm-10.656 6.78a.97.97 0 01.969-.968h19.375a.97.97 0 010 1.938H7.75a.97.97 0 01-.969-.97zm3.162 2.907h14.99a7.73 7.73 0 01-7.494 5.813 7.73 7.73 0 01-7.496-5.813zm1.379 9.012l4.79 5.475-2.138 2.138-2.792-7.545c.048-.021.092-.047.14-.068zm6.116 6.89l2.723 2.722-2.429 6.564h-.589l-2.429-6.564 2.723-2.723zm3.463.723l-2.138-2.138 4.79-5.475c.048.02.092.047.139.067L20.9 50.307zm-3.463-3.564l-4.14-4.733a15.416 15.416 0 014.14-.578c1.435 0 2.82.211 4.14.578l-4.14 4.733zm-15.5 10.19c0-5.625 3.021-10.545 7.516-13.262l5.624 15.199H7.75v-7.75H5.812v7.75H1.938v-1.938zm31 1.937h-3.876v-7.75h-1.937v7.75h-7.328l5.624-15.2c4.495 2.718 7.517 7.638 7.517 13.262v1.938zm-4.565-15.5a17.408 17.408 0 00-6.171-3.197 9.655 9.655 0 004.723-6.49h.2a2.91 2.91 0 002.906-2.907 2.91 2.91 0 00-2.906-2.906h-.82a9.699 9.699 0 00-8.867-5.813 9.6 9.6 0 00-1.938.205V20.12h38.75v19.375H39.719a2.91 2.91 0 00-2.907 2.906v.969h-8.44zM46.5 41.432h3.875v3.875H46.5v-3.875zm11.625 16.469a.97.97 0 01-.969.969H39.72a.97.97 0 01-.969-.97V42.4a.97.97 0 01.969-.968h4.843v5.813h7.75v-5.813h4.844a.97.97 0 01.969.969v15.5z" fill="#393939"/><path d="M54.25 54.995h1.938v1.937H54.25v-1.937zm-7.75 0h1.938v1.937H46.5v-1.937zm3.875 0h1.938v1.937h-1.938v-1.937zM46.5 51.12h9.688v1.937H46.5V51.12zm5.813-29.063H32.936V35.62h19.376V22.057zm-1.938 5.813H46.5v-3.875h3.875v3.875zm-9.688 0v-3.875h3.876v3.875h-3.876zm3.876 1.937v3.875h-3.876v-3.875h3.876zm-5.813-5.812v3.875h-3.875v-3.875h3.875zm-3.875 5.812h3.875v3.875h-3.875v-3.875zM46.5 33.682v-3.875h3.875v3.875H46.5z" fill="#FE9901"/></svg>