<svg width="63" height="53" fill="none" xmlns="http://www.w3.org/2000/svg"><path d="M61.532 10.148c-.5 0-.905.405-.905.905V43.07H37.755l-.372-.645a8.27 8.27 0 001.282-1.69h14.573c.5 0 .906-.406.906-.907v-1.22c0-1.114.907-2.02 2.022-2.02h1.22c.5 0 .905-.406.905-.907V10.07c0-.5-.405-.906-.906-.906h-1.22a2.024 2.024 0 01-2.021-2.022v-1.22c0-.5-.405-.905-.906-.905H19.755a.906.906 0 000 1.811h32.578v.314a3.837 3.837 0 003.833 3.833h.314v23.802h-.314a3.837 3.837 0 00-3.833 3.833v.314H39.432c.207-.72.32-1.48.32-2.265 0-4.535-3.69-8.224-8.224-8.224-4.534 0-8.223 3.689-8.223 8.224 0 .785.113 1.545.32 2.265H10.722v-.314a3.837 3.837 0 00-3.833-3.833h-.314V10.974h.314a3.837 3.837 0 003.833-3.833v-.314h4.803a.906.906 0 000-1.811H9.818c-.5 0-.906.405-.906.905v1.22A2.024 2.024 0 016.89 9.163H5.67c-.5 0-.905.405-.905.905v25.614c0 .5.406.905.906.905h1.22c1.114 0 2.021.907 2.021 2.022v1.22c0 .5.406.905.906.905H24.39a8.27 8.27 0 001.283 1.691l-.372.645H2.428v-7.302a.906.906 0 00-1.81 0v8.208c0 .5.405.905.905.905h22.732l-2.006 3.474a.906.906 0 00.331 1.237l4.225 2.44a.905.905 0 001.237-.331l3.485-6.036 3.485 6.035a.906.906 0 001.236.331l4.225-2.439a.906.906 0 00.332-1.237L38.8 44.881h22.732c.5 0 .906-.405.906-.905V11.053c0-.5-.406-.905-.906-.905zM31.528 30.245a6.42 6.42 0 016.413 6.413 6.42 6.42 0 01-6.413 6.412 6.42 6.42 0 01-6.412-6.412 6.42 6.42 0 016.412-6.413zm-4.6 19.765l-2.657-1.533 2.827-4.897a8.168 8.168 0 002.877 1.152l-3.047 5.278zm9.2 0l-3.047-5.278a8.173 8.173 0 002.877-1.152l2.827 4.897-2.657 1.533z" fill="#fff"/><path d="M61.532.87H1.524c-.5 0-.906.405-.906.905v29.764a.906.906 0 001.811 0V2.68h58.198v4.142a.906.906 0 101.81 0V1.775c0-.5-.405-.906-.905-.906zM31.528 40.734a4.081 4.081 0 004.077-4.076 4.081 4.081 0 00-4.077-4.077 4.081 4.081 0 00-4.077 4.077 4.081 4.081 0 004.077 4.076zm0-6.342a2.268 2.268 0 012.266 2.266 2.268 2.268 0 01-2.266 2.265 2.268 2.268 0 01-2.266-2.265 2.268 2.268 0 012.266-2.266z" fill="#fff"/><path d="M38.846 14.633c.5 0 .906-.405.906-.905V9.825c0-.5-.406-.906-.906-.906H24.21c-.5 0-.906.406-.906.906v3.903c0 .5.406.905.906.905h14.636zm-13.73-3.903H37.94v2.092H25.116V10.73zM13.547 21.534c0 .5.405.905.905.905h34.152a.905.905 0 100-1.81H14.453c-.5 0-.906.405-.906.905zm4.879-3.904c0 .5.405.906.905.906h24.394a.906.906 0 000-1.81H19.331c-.5 0-.905.405-.905.905zm30.178 6.901H14.453a.906.906 0 000 1.811h34.15a.905.905 0 100-1.81zm-29.92 7.614c.531.213 1.13.084 1.526-.33l.304-.317a.906.906 0 001.796-.164v-.86c0-.572-.343-1.079-.873-1.292a1.387 1.387 0 00-1.526.329l-.29.301v-.227a1.39 1.39 0 00-.86-1.288 1.389 1.389 0 00-1.518.302l-3.43 3.43a.905.905 0 101.28 1.281l2.717-2.717v.259c0 .572.344 1.08.874 1.293zm27.199 0c.53.213 1.13.084 1.526-.33l.304-.317a.906.906 0 001.796-.164v-.86c0-.572-.343-1.08-.873-1.292a1.387 1.387 0 00-1.526.328l-.29.302v-.228a1.39 1.39 0 00-.86-1.287 1.39 1.39 0 00-1.518.302l-3.43 3.43a.905.905 0 101.28 1.281l2.718-2.717v.259c0 .572.342 1.08.873 1.293z" fill="#fff"/></svg>