<svg width="21" height="20" fill="none" xmlns="http://www.w3.org/2000/svg"><path d="M10.5 19.583a1.917 1.917 0 100-3.833 1.917 1.917 0 000 3.833zm0-15.333a1.917 1.917 0 100-3.833 1.917 1.917 0 000 3.833zM5.079 17.338a1.917 1.917 0 100-3.833 1.917 1.917 0 000 3.833zM15.921 6.495a1.917 1.917 0 100-3.833 1.917 1.917 0 000 3.833zM2.833 11.918a1.918 1.918 0 100-3.836 1.918 1.918 0 000 3.836zm15.334-.001a1.917 1.917 0 100-3.834 1.917 1.917 0 000 3.834zM5.079 6.496a1.917 1.917 0 100-3.833 1.917 1.917 0 000 3.833zm10.842 10.843a1.917 1.917 0 100-3.833 1.917 1.917 0 000 3.833z" fill="#E0E0E0"/></svg>