<svg width="62" height="62" fill="none" xmlns="http://www.w3.org/2000/svg"><path d="M60.598 37.01h-6.08c-.559 0-1.012.453-1.012 1.012h-3.04c-.56 0-1.013.454-1.013 1.014v.182l-4.104.82-10.37-1.002c-.25-.024-.5.045-.702.195l-2.118 1.58-2.407-1.605a1.013 1.013 0 00-.653-.17l-11.015 1.002-5.104-.847v-.155c0-.56-.454-1.014-1.013-1.014h-3.04c0-.56-.454-1.013-1.013-1.013H1.835c-.56 0-1.013.454-1.013 1.013V56.26c0 .56.454 1.013 1.013 1.013h6.079c.56 0 1.013-.453 1.013-1.013h3.04c.56 0 1.013-.453 1.013-1.013h3.858l15.015 6.007c.205.081.43.094.643.036l11.145-3.039a.997.997 0 00.703-1.247l5.167-1.451a1 1 0 00.955.707h3.04c0 .56.453 1.013 1.013 1.013h6.079c.56 0 1.013-.453 1.013-1.013V38.022c0-.56-.454-1.013-1.013-1.013zM6.9 55.245H2.848v-16.21h4.053v16.21zm4.052-1.013H8.927V40.049h2.026v14.184zm21.337 5.012l-14.88-5.953a1.023 1.023 0 00-.378-.072H12.98V41.244l4.898.817c.086.014.172.017.259.01l10.789-.98 1.506 1.003-2.735 2.034a3.464 3.464 0 001.914 6.356 3.569 3.569 0 001.985-.608l.59-.444 9.025 7.384-8.92 2.429zm17.155-5.78l-6.8 1.908-8.794-7.2 1.64-1.235-1.216-1.62-3.85 2.9a1.445 1.445 0 01-2.24-1.345c.048-.448.298-.85.679-1.09l6.309-4.689 10.126.981c.1.009.199.003.296-.016l3.85-.77v12.176zm4.06.768H51.48V40.049h2.027v14.184zm6.08 1.013h-4.053v-16.21h4.053v16.21z" fill="#fff"/><path d="M16.424 56.34l-.798 1.862 7.092 3.041.798-1.862-7.092-3.041zm7.701-41.62h-9.119V8.64c0-.559-.453-1.012-1.013-1.012h-3.04V3.575c0-.56-.453-1.013-1.012-1.013H8.927V.536H6.901v2.026H5.888c-.56 0-1.013.454-1.013 1.013v4.053h-3.04c-.56 0-1.013.453-1.013 1.013v25.328c0 .56.454 1.014 1.013 1.014h22.29c.56 0 1.013-.454 1.013-1.014V15.733c0-.56-.454-1.013-1.013-1.013zM6.9 4.588h2.026v3.04H6.901v-3.04zm6.079 28.368H2.849V9.654H12.98v23.302zM23.11 18.772h-2.026V20.8h2.026v2.026h-2.026v2.026h2.026v8.105h-8.105v-16.21h8.105v2.026z" fill="#fff"/><path d="M6.9 15.733H4.876v2.026H6.9v-2.026zm4.054 0H8.927v2.026h2.027v-2.026zM6.9 19.786H4.876v2.026H6.9v-2.026zm4.054 0H8.927v2.026h2.027v-2.026zM6.9 23.838H4.876v2.027H6.9v-2.027zm12.159-5.065h-2.027v2.026h2.027v-2.026zm0 4.052h-2.027v2.026h2.027v-2.026zM6.9 11.68H4.876v2.027H6.9V11.68zm4.054 0H8.927v2.027h2.027V11.68zM44.387.536v1.52c0 .839-.68 1.52-1.52 1.52a3.546 3.546 0 00-3.545 3.545v1.52h2.026v-1.52c0-.839.68-1.52 1.52-1.52a3.546 3.546 0 003.546-3.546V.535h-2.027z" fill="#fff"/><path d="M61.258 23.07l-7.093-6.08a1.013 1.013 0 00-1.672.77v2.138L49.1 16.99a1.013 1.013 0 00-1.673.77v5.065H45.4V12.694h1.013v-2.027h-.732a2.02 2.02 0 011.745-1.013 5.072 5.072 0 005.066-5.066V2.562h-2.027v2.026a3.04 3.04 0 01-3.04 3.04 4.053 4.053 0 00-3.908 3.04h-5.21v2.026h1.014v10.131h-1.013c-.56 0-1.014.454-1.014 1.013V33.97c0 .56.454 1.013 1.014 1.013h22.289c.56 0 1.013-.454 1.013-1.013V23.838c0-.295-.13-.576-.353-.769zm-19.91-10.377h2.026v10.132h-2.026V12.694zm18.237 20.264H39.322V24.85h9.118c.56 0 1.013-.453 1.013-1.013v-3.876l3.393 2.909a1.013 1.013 0 001.673-.77v-2.14l5.066 4.343v8.652z" fill="#fff"/><path d="M53.506 28.904h-2.027v2.026h2.027v-2.026zm4.052 0h-2.026v2.026h2.026v-2.026zm-4.052-4.053h-2.027v2.027h2.027V24.85zm4.052 0h-2.026v2.027h2.026V24.85zm-14.184 2.027h-2.026v2.026h2.026v-2.026zm4.053 0H45.4v2.026h2.026v-2.026zM32.23 25.865v-2.027h-2.027v2.027h-2.026v2.026h2.026v2.026h2.027v-2.026h2.026v-2.026H32.23z" fill="#fff"/></svg>