<svg width="21" height="20" viewBox="0 0 21 20" fill="none" xmlns="http://www.w3.org/2000/svg">
<path d="M10.4999 19.5833C11.5585 19.5833 12.4166 18.7252 12.4166 17.6667C12.4166 16.6081 11.5585 15.75 10.4999 15.75C9.44137 15.75 8.58325 16.6081 8.58325 17.6667C8.58325 18.7252 9.44137 19.5833 10.4999 19.5833Z" fill="#E0E0E0"/>
<path d="M10.4999 4.24999C11.5585 4.24999 12.4166 3.39187 12.4166 2.33332C12.4166 1.27478 11.5585 0.416656 10.4999 0.416656C9.44137 0.416656 8.58325 1.27478 8.58325 2.33332C8.58325 3.39187 9.44137 4.24999 10.4999 4.24999Z" fill="#E0E0E0"/>
<path d="M5.07878 17.338C6.13732 17.338 6.99544 16.4799 6.99544 15.4213C6.99544 14.3628 6.13732 13.5046 5.07878 13.5046C4.02023 13.5046 3.16211 14.3628 3.16211 15.4213C3.16211 16.4799 4.02023 17.338 5.07878 17.338Z" fill="#E0E0E0"/>
<path d="M15.9213 6.49538C16.9799 6.49538 17.838 5.63726 17.838 4.57871C17.838 3.52017 16.9799 2.66205 15.9213 2.66205C14.8628 2.66205 14.0046 3.52017 14.0046 4.57871C14.0046 5.63726 14.8628 6.49538 15.9213 6.49538Z" fill="#E0E0E0"/>
<path d="M2.8334 11.9176C3.89247 11.9176 4.75102 11.0591 4.75102 9.99999C4.75102 8.94092 3.89247 8.08237 2.8334 8.08237C1.77432 8.08237 0.915771 8.94092 0.915771 9.99999C0.915771 11.0591 1.77432 11.9176 2.8334 11.9176Z" fill="#E0E0E0"/>
<path d="M18.1667 11.9167C19.2252 11.9167 20.0833 11.0586 20.0833 10C20.0833 8.94146 19.2252 8.08334 18.1667 8.08334C17.1081 8.08334 16.25 8.94146 16.25 10C16.25 11.0586 17.1081 11.9167 18.1667 11.9167Z" fill="#E0E0E0"/>
<path d="M5.07878 6.49633C6.13732 6.49633 6.99544 5.63821 6.99544 4.57966C6.99544 3.52112 6.13732 2.66299 5.07878 2.66299C4.02023 2.66299 3.16211 3.52112 3.16211 4.57966C3.16211 5.63821 4.02023 6.49633 5.07878 6.49633Z" fill="#E0E0E0"/>
<path d="M15.9213 17.3389C16.9799 17.3389 17.838 16.4808 17.838 15.4223C17.838 14.3637 16.9799 13.5056 15.9213 13.5056C14.8628 13.5056 14.0046 14.3637 14.0046 15.4223C14.0046 16.4808 14.8628 17.3389 15.9213 17.3389Z" fill="#E0E0E0"/>
</svg>
